<?xml version="1.0" encoding="UTF-8"?>
<svg width="33px" height="30px" viewBox="0 0 33 30" version="1.1" xmlns="http://www.w3.org/2000/svg" xmlns:xlink="http://www.w3.org/1999/xlink">
    <!-- Generator: Sketch 46.2 (44496) - http://www.bohemiancoding.com/sketch -->
    <title>Shape</title>
    <desc>Created with Sketch.</desc>
    <defs></defs>
    <g id="Page-1" stroke="none" stroke-width="1" fill="none" fill-rule="evenodd">
        <g id="推荐问题" transform="translate(-504.000000, -1280.000000)" fill-rule="nonzero" fill="#666666">
            <g id="如何玩转拍拍贷" transform="translate(0.000000, 1243.000000)">
                <g id="Group" transform="translate(0.000000, 1.000000)">
                    <g id="有用" transform="translate(294.000000, 27.000000)">
                        <path d="M242.02413,23.602465 C242.035818,23.7454583 242.02413,23.8941714 241.983223,24.0428844 L239.102192,36.4833038 C239.061285,36.6320169 238.997002,36.7692905 238.909344,36.8894048 C238.599618,37.4899768 238.132108,38.0276317 237.506813,38.4108538 C236.852299,38.8169549 236.115971,39.0114258 235.39133,39.0114258 L235.39133,39.005706 L216.895459,38.9999863 C216.831176,39.0114257 216.766894,39.0171455 216.696767,39.0171455 C216.626641,39.0171455 216.562358,39.0114257 216.498075,38.9999863 L211.577531,38.9999863 C211.507404,39.0114257 211.437278,39.0171455 211.367151,39.0171455 C210.630823,39.0171455 210.034747,38.4337327 210.034747,37.7130463 L210.046435,22.058137 C210.046435,21.3374506 210.642511,20.7540378 211.378839,20.7540378 C211.431434,20.7540378 211.489873,20.7597575 211.542468,20.7654772 L215.966283,20.7540378 L215.966283,20.7311589 C220.033621,20.4451722 223.259441,17.1792046 223.376319,13.1525125 C223.364631,13.0381178 223.358787,12.9237232 223.358787,12.8093285 C223.358787,10.7159062 225.094418,9.01714549 227.233278,9.01714549 C229.074099,9.01714549 230.611038,10.2754868 231.008422,11.9570883 L231.025954,11.9570883 C231.242177,12.9180035 231.364899,13.913237 231.364899,14.9370692 C231.364899,16.5157155 231.090236,18.0314448 230.587663,19.4442188 L238.026918,19.4499386 C238.097045,19.4499386 238.161328,19.4556583 238.22561,19.4670978 C239.493732,19.5185754 240.720946,20.1534657 241.439743,21.2916926 C241.901409,22.0009397 242.082569,22.8131418 242.02413,23.602465 Z M212.711243,36.3803486 L215.376051,36.3803486 L215.387739,23.3507967 L212.722931,23.3565164 L212.711243,36.3803486 Z" id="Shape" transform="translate(226.034747, 24.017145) scale(1, -1) translate(-226.034747, -24.017145) "></path>
                    </g>
                </g>
            </g>
        </g>
    </g>
</svg>