<?xml version="1.0" encoding="UTF-8"?>
<svg width="33px" height="30px" viewBox="0 0 33 30" version="1.1" xmlns="http://www.w3.org/2000/svg" xmlns:xlink="http://www.w3.org/1999/xlink">
    <!-- Generator: Sketch 46.2 (44496) - http://www.bohemiancoding.com/sketch -->
    <title>Shape</title>
    <desc>Created with Sketch.</desc>
    <defs></defs>
    <g id="Page-1" stroke="none" stroke-width="1" fill="none" fill-rule="evenodd">
        <g id="推荐问题" transform="translate(-555.000000, -1278.000000)" fill-rule="nonzero" fill="#666666">
            <g id="如何玩转拍拍贷" transform="translate(0.000000, 1243.000000)">
                <g id="Group" transform="translate(0.000000, 1.000000)">
                    <g id="没用" transform="translate(555.000000, 26.000000)">
                        <path d="M32.0241304,22.602465 C32.0358181,22.7454583 32.0241304,22.8941714 31.9832232,23.0428844 L29.1021918,35.4833038 C29.0612847,35.6320169 28.9970021,35.7692905 28.9093439,35.8894048 C28.5996184,36.4899768 28.1321083,37.0276317 27.5068134,37.4108538 C26.8522992,37.8169549 26.1159707,38.0114258 25.3913299,38.0114258 L25.3913299,38.005706 L6.89545898,37.9999863 C6.83117635,38.0114257 6.76689368,38.0171455 6.69676716,38.0171455 C6.62664064,38.0171455 6.56235797,38.0114257 6.49807534,37.9999863 L1.57753086,37.9999863 C1.50740435,38.0114257 1.43727783,38.0171455 1.36715131,38.0171455 C0.630822821,38.0171455 0.0347473238,37.4337327 0.0347473238,36.7130463 L0.0464350615,21.058137 C0.0464350615,20.3374506 0.642510513,19.7540378 1.37883905,19.7540378 C1.43143394,19.7540378 1.48987272,19.7597575 1.54246761,19.7654772 L5.96628252,19.7540378 L5.96628252,19.7311589 C10.033621,19.4451722 13.2594411,16.1792046 13.3763186,12.1525125 C13.3646309,12.0381178 13.358787,11.9237232 13.358787,11.8093285 C13.358787,9.71590624 15.0944185,8.01714549 17.2332775,8.01714549 C19.0740988,8.01714549 20.6110384,9.27548675 21.0084221,10.9570883 L21.0259537,10.9570883 C21.2421772,11.9180035 21.3648986,12.913237 21.3648986,13.9370692 C21.3648986,15.5157155 21.0902363,17.0314448 20.5876629,18.4442188 L28.0269184,18.4499386 C28.0970449,18.4499386 28.1613276,18.4556583 28.2256102,18.4670978 C29.4937315,18.5185754 30.7209457,19.1534657 31.4397426,20.2916926 C31.901409,21.0009397 32.0825691,21.8131418 32.0241304,22.602465 L32.0241304,22.602465 Z M2.71124303,35.3803486 L5.37605096,35.3803486 L5.3877387,22.3507967 L2.72293077,22.3565164 L2.71124303,35.3803486 L2.71124303,35.3803486 Z M29.1956939,21.6415498 C28.9385633,21.2354488 28.4885848,21.0238186 28.0327623,21.0466975 L28.0327623,21.0409778 C28.0327623,21.0409778 28.0327623,21.0409778 28.0269184,21.0409778 L18.6241203,21.0295383 C17.8877918,21.0295383 17.2917163,20.4461256 17.2917163,19.7254392 C17.2917163,19.5195288 17.3443112,19.3250579 17.4319693,19.1477461 L17.4202816,19.1363067 C17.9520744,18.1639521 18.3377703,17.1115212 18.5598376,15.9961732 L18.5773692,15.9961732 C18.5773692,15.9961732 18.7526855,15.2926461 18.7526855,13.9427891 C18.7526855,12.873199 18.5539937,11.8951246 18.5539937,11.8951246 L18.542306,11.8951246 C18.542306,11.8779655 18.5481499,11.8550865 18.5481499,11.8379273 C18.5481499,11.1629988 17.9929816,10.6196242 17.3034041,10.6196242 C16.6138266,10.6196242 16.0586583,11.1629988 16.0586583,11.8379273 C16.0586583,11.866526 16.0586583,11.8951246 16.0645022,11.9237233 L16.0469705,11.9237233 C16.0469705,11.9237233 16.0703461,12.9418358 15.8599665,13.9999864 C15.7723083,14.4461256 15.6495869,14.8636661 15.5327093,15.1954106 C15.5327093,15.1954106 15.5268655,15.1954106 15.5268655,15.1896909 C14.4048411,18.5471742 11.5880923,21.1496527 8.05839056,22.0247719 L8.04670282,35.3803486 L25.4088616,35.3860683 C25.4673003,35.3860683 25.5257391,35.3917881 25.5841779,35.3975078 C25.7594942,35.3746288 25.9289666,35.3174315 26.0867513,35.2201961 C26.3088186,35.0829225 26.4724472,34.8827318 26.5659492,34.6596622 L26.5717931,34.6596622 L29.3417908,22.6825412 L29.3301031,22.6768215 C29.4352928,22.3507967 29.4002295,21.9675746 29.1956939,21.6415498 L29.1956939,21.6415498 Z" id="Shape" transform="translate(16.034747, 23.017145) scale(1, -1) translate(-16.034747, -23.017145) "></path>
                    </g>
                </g>
            </g>
        </g>
    </g>
</svg>