<?xml version="1.0" encoding="UTF-8"?>
<svg width="40px" height="36px" viewBox="0 0 40 36" version="1.1" xmlns="http://www.w3.org/2000/svg" xmlns:xlink="http://www.w3.org/1999/xlink">
    <!-- Generator: Sketch 46.2 (44496) - http://www.bohemiancoding.com/sketch -->
    <title>Shape</title>
    <desc>Created with Sketch.</desc>
    <defs></defs>
    <g id="Page-1" stroke="none" stroke-width="1" fill="none" fill-rule="evenodd">
        <g id="上传照片" transform="translate(-78.000000, -1277.000000)" fill-rule="nonzero" fill="#90939C">
            <path d="M114.673025,1280.06983 C112.740883,1278.11888 110.051402,1277 107.294397,1277 C106.595382,1277 105.902963,1277.07217 105.236755,1277.21464 C101.455095,1278.0226 99.1192012,1280.76606 97.9997702,1282.46501 C96.8805128,1280.76606 94.5446185,1278.0226 90.7629589,1277.21464 C90.0965772,1277.07217 89.4043318,1277 88.7053167,1277 C85.947965,1277 83.258484,1278.11888 81.3263416,1280.06966 C79.7236581,1281.68796 77.8472356,1284.67085 78.0098821,1289.69164 C78.3263222,1299.47765 91.0826971,1310.13003 97.6012257,1312.90626 C97.7208238,1312.96638 97.8558706,1313 97.9976872,1313 L98.0022003,1313 C98.0034154,1313 98.0048041,1313 98.005672,1313 C98.1558205,1313 98.2969427,1312.96264 98.4200125,1312.89726 C104.945311,1310.10677 117.674086,1299.46678 117.990179,1289.69181 C118.152305,1284.67102 116.275882,1281.68813 114.673025,1280.06983 Z" id="Shape"></path>
        </g>
    </g>
</svg>