<?xml version="1.0" encoding="UTF-8"?>
<svg width="38px" height="31px" viewBox="0 0 38 31" version="1.1" xmlns="http://www.w3.org/2000/svg" xmlns:xlink="http://www.w3.org/1999/xlink">
    <!-- Generator: Sketch 46.2 (44496) - http://www.bohemiancoding.com/sketch -->
    <title>Shape</title>
    <desc>Created with Sketch.</desc>
    <defs></defs>
    <g id="Page-1" stroke="none" stroke-width="1" fill="none" fill-rule="evenodd">
        <g id="上传照片" transform="translate(-168.000000, -1280.000000)" fill-rule="nonzero" fill="#8F939C">
            <path d="M202.2,1280 L171.8,1280 C169.70145,1280 168,1281.73438 168,1283.87512 L168,1307.12583 C168,1309.26467 169.70145,1311 171.8,1311 L202.2,1311 C204.29855,1311 206,1309.26467 206,1307.12583 L206,1283.87512 C206,1281.73438 204.29855,1280 202.2,1280 Z M203.46635,1298.48993 C201.573265,1297.70757 199.392976,1298.15745 197.9668,1299.62471 L194.5658,1303.09347 C194.49645,1303.0139 194.44515,1302.92392 194.36915,1302.84814 L183.60755,1291.87542 C182.667105,1290.90686 181.372875,1290.36006 180.020825,1290.36006 C178.668775,1290.36006 177.374545,1290.90686 176.4341,1291.87542 L170.53365,1297.89318 L170.53365,1286.45916 C170.53365,1284.31842 172.2351,1282.58404 174.33365,1282.58404 L199.6673,1282.58404 C201.76585,1282.58404 203.4673,1284.31937 203.4673,1286.45916 L203.4673,1298.48993 L203.46635,1298.48993 Z M195.23365,1286.45916 C192.78455,1286.45916 190.8,1288.48339 190.8,1290.97934 C190.8,1293.4753 192.78455,1295.50047 195.23365,1295.50047 C197.6818,1295.50047 199.66635,1293.47624 199.66635,1290.98029 C199.66635,1288.48434 197.6818,1286.45916 195.23365,1286.45916 Z" id="Shape"></path>
        </g>
    </g>
</svg>