<?xml version="1.0" encoding="UTF-8"?>
<svg width="100px" height="100px" viewBox="0 0 100 100" version="1.1" xmlns="http://www.w3.org/2000/svg" xmlns:xlink="http://www.w3.org/1999/xlink">
    <!-- Generator: Sketch 46.2 (44496) - http://www.bohemiancoding.com/sketch -->
    <title>已提交@2x</title>
    <desc>Created with Sketch.</desc>
    <defs></defs>
    <g id="Page-1" stroke="none" stroke-width="1" fill="none" fill-rule="evenodd">
        <g id="评价-已提交-用" transform="translate(-325.000000, -920.000000)" fill-rule="nonzero" fill="#538CE9">
            <g id="评价" transform="translate(0.000000, 821.000000)">
                <g id="已提交" transform="translate(325.000000, 99.000000)">
                    <path d="M79.4545456,30.4299185 C78.7819527,29.8126751 77.7394337,29.8687881 77.1228902,30.5421445 L44.7935911,67.2625151 L24.0665197,46.0742328 C23.4275564,45.4233216 22.3738275,45.4233216 21.7348643,46.0630102 C21.095901,46.7026988 21.0846911,47.7576239 21.7236544,48.4085351 L42.9663804,70.1355025 C43.1457385,70.3150642 43.3587263,70.4497355 43.5941338,70.5282938 C43.6613931,70.6292972 43.7510721,70.7303007 43.8407512,70.8200815 C44.5133441,71.4373249 45.5558631,71.3812119 46.1724066,70.7078555 L79.5666445,32.7754433 C80.183188,32.1020869 80.1383484,31.0471618 79.4545456,30.4299185 Z" id="Shape"></path>
                    <path d="M50,100 C22.4330357,100 0,77.5669643 0,50 C0,22.4330357 22.4330357,0 50,0 C77.5669643,0 100,22.4330357 100,50 C100,77.5669643 77.5669643,100 50,100 Z M50,0.636160714 C22.7790179,0.636160714 0.636160714,22.7790179 0.636160714,50 C0.636160714,77.2209821 22.7790179,99.3638393 50,99.3638393 C77.2209821,99.3638393 99.3638393,77.2209821 99.3638393,50 C99.3638393,22.7790179 77.2209821,0.636160714 50,0.636160714 Z" id="Shape"></path>
                </g>
            </g>
        </g>
    </g>
</svg>