<?xml version="1.0" encoding="UTF-8"?>
<svg width="40px" height="40px" viewBox="0 0 40 40" version="1.1" xmlns="http://www.w3.org/2000/svg" xmlns:xlink="http://www.w3.org/1999/xlink">
    <!-- Generator: Sketch 46.2 (44496) - http://www.bohemiancoding.com/sketch -->
    <title>Shape</title>
    <desc>Created with Sketch.</desc>
    <defs></defs>
    <g id="Page-1" stroke="none" stroke-width="1" fill="none" fill-rule="evenodd">
        <g id="评分" transform="translate(-26.000000, -1274.000000)" fill-rule="nonzero" fill="#B4CDF6">
            <g id="如何玩转拍拍贷" transform="translate(0.000000, 1253.000000)">
                <g id="Group" transform="translate(0.000000, 1.000000)">
                    <g id="键盘" transform="translate(26.000000, 20.000000)">
                        <path d="M20.0224733,40.0224733 C8.97888715,40.0224733 0.0224732915,31.0659216 0.0224732915,20.0224733 C0.0224732915,8.97897903 8.97888715,0.0224732915 20.0224733,0.0224732915 C31.0660594,0.0224732915 40.0224733,8.97897903 40.0224733,20.0224733 C40.0224733,31.0658756 30.9787952,40.0224733 20.0224733,40.0224733 Z M20.0224733,1.76155377 C9.93548481,1.76155377 1.7616457,9.93548481 1.7616457,20.0224733 C1.7616457,30.1094158 9.93548481,38.2833009 20.0224733,38.2833009 C30.1094618,38.2833009 38.2833009,30.1093699 38.2833009,20.0224733 C38.2833009,9.93548481 30.0226111,1.76155377 20.0224733,1.76155377 Z M29.0981804,23.1376078 L27.6895918,23.1376078 C27.3007859,23.1376078 26.9851827,22.8220505 26.9851827,22.4333365 L26.9851827,19.6162053 C26.9851827,19.2273994 27.3008318,18.911934 27.6895918,18.911934 L29.0981804,18.911934 C29.4869863,18.911934 29.8025895,19.2274454 29.8025895,19.6162053 L29.8025895,22.4333365 C29.8025895,22.8220505 29.4869404,23.1376078 29.0981804,23.1376078 Z M29.0981804,16.7989823 L27.6895918,16.7989823 C27.3007859,16.7989823 26.9851827,16.4835628 26.9851827,16.0947569 L26.9851827,13.2776258 C26.9851827,12.8888198 27.3008318,12.5733544 27.6895918,12.5733544 L29.0981804,12.5733544 C29.4869863,12.5733544 29.8025895,12.8888658 29.8025895,13.2776258 L29.8025895,16.0947569 C29.8025895,16.4835168 29.4869404,16.7989822 29.0981804,16.7989823 Z M23.4640559,23.1376078 L22.0551916,23.1376078 C21.6667534,23.1376078 21.3511041,22.8220505 21.3511041,22.4333365 L21.3511041,19.6162053 C21.3511041,19.2273994 21.6667533,18.911934 22.0551916,18.911934 L23.4640559,18.911934 C23.8525401,18.911934 24.1681893,19.2274454 24.1681893,19.6162053 L24.1681893,22.4333365 C24.1681893,22.8220505 23.8525401,23.1376078 23.4640559,23.1376078 Z M23.4640559,16.7989823 L22.0551916,16.7989823 C21.6667534,16.7989823 21.3511041,16.4835628 21.3511041,16.0947569 L21.3511041,13.2776258 C21.3511041,12.8888198 21.6667533,12.5733544 22.0551916,12.5733544 L23.4640559,12.5733544 C23.8525401,12.5733544 24.1681893,12.8888658 24.1681893,13.2776258 L24.1681893,16.0947569 C24.1681893,16.4835168 23.8525401,16.7989822 23.4640559,16.7989823 Z M28.394047,26.6590103 L28.394047,27.3632816 C28.394047,27.7520875 28.0784896,28.0675069 27.6896378,28.067507 L12.1953015,28.067507 C11.8068172,28.067507 11.491168,27.7520875 11.491168,27.3632816 L11.491168,26.6590103 C11.491168,26.2702043 11.8068172,25.954739 12.1953015,25.954739 L27.6896378,25.954739 C28.0784437,25.954739 28.394047,26.2702503 28.394047,26.6590103 Z M17.8297017,23.1376078 L16.4211131,23.1376078 C16.0323072,23.1376078 15.7167039,22.8220505 15.7167039,22.4333365 L15.7167039,19.6162053 C15.7167039,19.2273994 16.0323531,18.911934 16.4211131,18.911934 L17.8297017,18.911934 C18.2181399,18.911934 18.5337892,19.2274454 18.5337891,19.6162053 L18.5337891,22.4333365 C18.5337432,22.8220505 18.218094,23.1376078 17.8297017,23.1376078 Z M17.8297017,16.7989823 L16.4211131,16.7989823 C16.0323072,16.7989823 15.7167039,16.4835628 15.7167039,16.0947569 L15.7167039,13.2776258 C15.7167039,12.8888198 16.0323531,12.5733544 16.4211131,12.5733544 L17.8297017,12.5733544 C18.2181399,12.5733544 18.5337892,12.8888658 18.5337891,13.2776258 L18.5337891,16.0947569 C18.5337432,16.4835168 18.218094,16.7989822 17.8297017,16.7989823 Z M12.1952555,23.1376078 L10.7870346,23.1376078 C10.397907,23.1376078 10.0822578,22.8220505 10.0822578,22.4333365 L10.0822578,19.6162053 C10.0822578,19.2273994 10.397907,18.911934 10.7870346,18.911934 L12.1952555,18.911934 C12.5843831,18.911934 12.8996647,19.2274454 12.8996647,19.6162053 L12.8996647,22.4333365 C12.8996647,22.8220505 12.5843831,23.1376078 12.1952555,23.1376078 Z M12.1952555,16.7989823 L10.7870346,16.7989823 C10.397907,16.7989823 10.0822578,16.4835628 10.0822578,16.0947569 L10.0822578,13.2776258 C10.0822578,12.8888198 10.397907,12.5733544 10.7870346,12.5733544 L12.1952555,12.5733544 C12.5843831,12.5733544 12.8996647,12.8888658 12.8996647,13.2776258 L12.8996647,16.0947569 C12.8996647,16.4835168 12.5843831,16.7989822 12.1952555,16.7989823 Z" id="Shape"></path>
                    </g>
                </g>
            </g>
        </g>
    </g>
</svg>