<?xml version="1.0" encoding="UTF-8"?>
<svg width="80px" height="70px" viewBox="0 0 80 70" version="1.1" xmlns="http://www.w3.org/2000/svg" xmlns:xlink="http://www.w3.org/1999/xlink">
    <!-- Generator: Sketch 46.2 (44496) - http://www.bohemiancoding.com/sketch -->
    <title>红心</title>
    <desc>Created with Sketch.</desc>
    <defs></defs>
    <g id="Page-1" stroke="none" stroke-width="1" fill="none" fill-rule="evenodd">
        <g id="评分2" transform="translate(-115.000000, -1004.000000)" fill-rule="nonzero">
            <g id="评价" transform="translate(0.000000, 855.000000)">
                <g id="Group-3" transform="translate(115.000000, 149.000000)">
                    <g id="红心">
                        <path d="M40.5879226,69.9608151 C40.3116069,69.9608151 40.0351073,69.892359 39.783443,69.7520846 C39.6995549,69.703521 39.6171384,69.6484198 39.5431844,69.588369 C39.4099017,69.4881596 39.0052703,69.2040621 38.4062797,68.7832391 C35.7903871,66.9356711 29.6632436,62.6123825 25.6259442,59.4418277 C10.5634289,47.5348529 2.56591155,38.7180227 1.16906409,32.4821655 C0.45325564,30.2721443 0.0568106966,27.7663517 0.020569618,25.1853786 C-0.0665378876,18.3265053 2.4769644,11.7164276 6.99818418,7.05085842 C11.0751281,2.8396399 16.4206956,0.507649126 22.042487,0.484207797 L22.0458903,0.484207797 C29.1795993,0.484207797 35.5864619,3.75842741 39.8163729,9.36118223 C43.9460227,3.5813567 50.3395479,0.146970339 57.3648094,0.0499363755 L57.7910567,0.0466676402 C69.8622986,0.0466676402 79.8227242,10.8678705 79.9888448,24.166475 C80.0184632,26.7374551 79.6829107,29.2531473 78.9868786,31.6451889 C77.7826426,37.7691629 69.7980948,47.0669604 55.2950175,59.1277513 C49.5744369,63.9204265 44.9249015,67.4768759 41.4830973,69.6967966 C41.2100008,69.8739608 40.9006635,69.9608151 40.5879226,69.9608151 Z" id="Shape" fill="#FF6161"></path>
                        <path d="M66.9730336,30.7299504 C66.8596191,30.7299504 66.7461126,30.7181831 66.6292027,30.6931541 C65.7309009,30.502635 65.1518705,29.6056077 65.339331,28.6919568 L65.5895236,27.6628736 C65.898861,26.5804638 66.046769,25.4711572 66.0303961,24.3486824 C65.9613172,18.6708405 62.2362987,14.2272634 57.5440833,14.2272634 C56.6226938,14.2272634 55.8741396,13.4705105 55.8741396,12.5350059 C55.8741396,11.599688 56.6160711,10.8446161 57.5374606,10.8446161 C64.07733,10.8446161 69.2714023,16.7563107 69.3619132,24.3034808 C69.3833451,25.7567491 69.1923893,27.2050675 68.792633,28.5998725 L68.6002054,29.3835223 C68.4373963,30.1818346 67.7448594,30.7299504 66.9730336,30.7299504 Z" id="Shape" fill="#FFFFFF"></path>
                    </g>
                </g>
            </g>
        </g>
    </g>
</svg>