<?xml version="1.0" encoding="UTF-8"?>
<svg width="46px" height="46px" viewBox="0 0 46 46" version="1.1" xmlns="http://www.w3.org/2000/svg" xmlns:xlink="http://www.w3.org/1999/xlink">
    <!-- Generator: Sketch 46.2 (44496) - http://www.bohemiancoding.com/sketch -->
    <title>赞</title>
    <desc>Created with Sketch.</desc>
    <defs></defs>
    <g id="Page-1" stroke="none" stroke-width="1" fill="none" fill-rule="evenodd">
        <g id="满意不满意-4" transform="translate(-447.000000, -881.000000)">
            <g id="赞" transform="translate(448.000000, 882.000000)">
                <circle id="Oval" stroke="#D5D5D5" cx="22" cy="22" r="22"></circle>
                <path d="M29.4909589,32.9999699 L20.2120797,32.9999699 C19.602662,32.9999699 19.1087612,32.4982039 19.1087612,31.8798405 C19.1087612,31.2606047 19.6018481,30.7597111 20.2120797,30.7597111 L29.4909589,30.7597111 C29.5578815,30.7597111 29.6574213,30.7451213 29.7625682,30.6738273 C29.8621985,30.6057219 29.9131441,30.5141526 29.933884,30.4501383 L33.9391717,21.2005876 C34.1941106,20.6226843 34.1391557,19.9625371 33.8014076,19.4349007 C33.4620316,18.9068431 32.8893007,18.5915548 32.269513,18.5915548 L26.4432071,18.5899605 C25.954853,18.5899605 25.5286585,18.2669411 25.3884828,17.7932114 C25.2514723,17.3202639 25.4315002,16.8096237 25.8377384,16.5381346 C26.7841205,15.9034969 27.7034019,12.4142679 26.9466339,10.0978117 C26.5212533,8.78723379 25.8377384,8.82612968 25.5421938,8.84273489 L25.2196087,8.84556259 C24.7878374,8.84556259 24.3815689,9.0161871 24.0740566,9.32660215 C23.7697396,9.6378595 23.6024632,10.0512148 23.6024632,10.4921251 L23.6024632,12.0199244 C23.6024632,13.800231 22.9181645,15.4743185 21.6818448,16.731832 C20.5865147,17.8487125 19.1693533,18.5202006 17.6446634,18.6571935 L17.6446634,30.8229132 C17.6446634,31.4049376 17.4232159,31.9495703 17.0185151,32.3596768 C16.6130304,32.77225 16.0737609,33 15.5065466,33 L11.952052,33 C11.4015985,33 10.8846064,32.7811542 10.4990477,32.3864497 C10.1111077,31.9917753 9.9,31.4665153 9.9,30.9105116 L9.9,18.733391 C9.9,18.1242928 10.1326013,17.5476229 10.557198,17.1160079 C10.9849601,16.6835806 11.5481952,16.4469264 12.1488406,16.4469264 L17.0535439,16.4469264 C18.2166105,16.4469264 19.3063336,15.9853498 20.1300543,15.1497049 C20.9473843,14.3132477 21.402247,13.2028047 21.402247,12.0198943 L21.402247,10.4920951 C21.402247,9.45180304 21.7981454,8.47591632 22.5206683,7.74486611 C23.244789,7.01011584 24.2014808,6.60611601 25.2211762,6.60611601 L25.4792503,6.60611601 C27.1154778,6.51126781 28.4251109,7.52319264 29.0369403,9.3922108 C29.6694191,11.3378776 29.4918029,14.2723062 28.589222,16.3524993 L32.2702967,16.3524993 C33.6365126,16.3549059 34.899933,17.0495269 35.6439194,18.2130344 C36.3903777,19.3785574 36.5074621,20.8325958 35.9561947,22.1018412 L31.9699892,31.3100894 C31.7883335,31.7777726 31.4505854,32.2105609 31.0028671,32.5242248 C30.5520138,32.8362041 30.0294447,32.9999699 29.4909589,32.9999699 Z M12.1002464,30.7605233 L15.4427892,30.7605233 L15.4427892,18.6835152 L12.1488406,18.6835152 L12.1002464,30.7605233 Z" id="Shape" fill="#D5D5D5" fill-rule="nonzero"></path>
            </g>
        </g>
    </g>
</svg>