<?xml version="1.0" encoding="UTF-8"?>
<svg width="46px" height="46px" viewBox="0 0 46 46" version="1.1" xmlns="http://www.w3.org/2000/svg" xmlns:xlink="http://www.w3.org/1999/xlink">
    <!-- Generator: Sketch 46.2 (44496) - http://www.bohemiancoding.com/sketch -->
    <title>赞</title>
    <desc>Created with Sketch.</desc>
    <defs></defs>
    <g id="Page-1" stroke="none" stroke-width="1" fill="none" fill-rule="evenodd">
        <g id="满意不满意-4" transform="translate(-513.000000, -881.000000)">
            <g id="赞" transform="translate(514.000000, 882.000000)">
                <circle id="Oval" stroke="#D5D5D5" cx="22" cy="22" r="22"></circle>
                <path d="M29.4909589,37.3999699 L20.2120797,37.3999699 C19.602662,37.3999699 19.1087612,36.8982039 19.1087612,36.2798405 C19.1087612,35.6606047 19.6018481,35.1597111 20.2120797,35.1597111 L29.4909589,35.1597111 C29.5578815,35.1597111 29.6574213,35.1451213 29.7625682,35.0738273 C29.8621985,35.0057219 29.9131441,34.9141526 29.933884,34.8501383 L33.9391717,25.6005876 C34.1941106,25.0226843 34.1391557,24.3625371 33.8014076,23.8349007 C33.4620316,23.3068431 32.8893007,22.9915548 32.269513,22.9915548 L26.4432071,22.9899605 C25.954853,22.9899605 25.5286585,22.6669411 25.3884828,22.1932114 C25.2514723,21.7202639 25.4315002,21.2096237 25.8377384,20.9381346 C26.7841205,20.3034969 27.7034019,16.8142679 26.9466339,14.4978117 C26.5212533,13.1872338 25.8377384,13.2261297 25.5421938,13.2427349 L25.2196087,13.2455626 C24.7878374,13.2455626 24.3815689,13.4161871 24.0740566,13.7266021 C23.7697396,14.0378595 23.6024632,14.4512148 23.6024632,14.8921251 L23.6024632,16.4199244 C23.6024632,18.200231 22.9181645,19.8743185 21.6818448,21.131832 C20.5865147,22.2487125 19.1693533,22.9202006 17.6446634,23.0571935 L17.6446634,35.2229132 C17.6446634,35.8049376 17.4232159,36.3495703 17.0185151,36.7596768 C16.6130304,37.17225 16.0737609,37.4 15.5065466,37.4 L11.952052,37.4 C11.4015985,37.4 10.8846064,37.1811542 10.4990477,36.7864497 C10.1111077,36.3917753 9.9,35.8665153 9.9,35.3105116 L9.9,23.133391 C9.9,22.5242928 10.1326013,21.9476229 10.557198,21.5160079 C10.9849601,21.0835806 11.5481952,20.8469264 12.1488406,20.8469264 L17.0535439,20.8469264 C18.2166105,20.8469264 19.3063336,20.3853498 20.1300543,19.5497049 C20.9473843,18.7132477 21.402247,17.6028047 21.402247,16.4198943 L21.402247,14.8920951 C21.402247,13.851803 21.7981454,12.8759163 22.5206683,12.1448661 C23.244789,11.4101158 24.2014808,11.006116 25.2211762,11.006116 L25.4792503,11.006116 C27.1154778,10.9112678 28.4251109,11.9231926 29.0369403,13.7922108 C29.6694191,15.7378776 29.4918029,18.6723062 28.589222,20.7524993 L32.2702967,20.7524993 C33.6365126,20.7549059 34.899933,21.4495269 35.6439194,22.6130344 C36.3903777,23.7785574 36.5074621,25.2325958 35.9561947,26.5018412 L31.9699892,35.7100894 C31.7883335,36.1777726 31.4505854,36.6105609 31.0028671,36.9242248 C30.5520138,37.2362041 30.0294447,37.3999699 29.4909589,37.3999699 Z M12.1002464,35.1605233 L15.4427892,35.1605233 L15.4427892,23.0835152 L12.1488406,23.0835152 L12.1002464,35.1605233 Z" id="Shape" fill="#D5D5D5" fill-rule="nonzero" transform="translate(23.100000, 24.200000) scale(1, -1) translate(-23.100000, -24.200000) "></path>
            </g>
        </g>
    </g>
</svg>