<?xml version="1.0" encoding="UTF-8"?>
<svg width="33px" height="31px" viewBox="0 0 33 31" version="1.1" xmlns="http://www.w3.org/2000/svg" xmlns:xlink="http://www.w3.org/1999/xlink">
    <!-- Generator: Sketch 46.2 (44496) - http://www.bohemiancoding.com/sketch -->
    <title>Shape</title>
    <desc>Created with Sketch.</desc>
    <defs></defs>
    <g id="Page-1" stroke="none" stroke-width="1" fill="none" fill-rule="evenodd">
        <g id="推荐问题" transform="translate(-294.000000, -1273.000000)" fill-rule="nonzero" fill="#666666">
            <g id="如何玩转拍拍贷" transform="translate(0.000000, 1243.000000)">
                <g id="Group" transform="translate(0.000000, 1.000000)">
                    <g id="有用" transform="translate(294.000000, 27.000000)">
                        <path d="M32.0241304,16.602465 C32.0358181,16.7454583 32.0241304,16.8941714 31.9832232,17.0428844 L29.1021918,29.4833038 C29.0612847,29.6320169 28.9970021,29.7692905 28.9093439,29.8894048 C28.5996184,30.4899768 28.1321083,31.0276317 27.5068134,31.4108538 C26.8522992,31.8169549 26.1159707,32.0114258 25.3913299,32.0114258 L25.3913299,32.005706 L6.89545898,31.9999863 C6.83117635,32.0114257 6.76689368,32.0171455 6.69676716,32.0171455 C6.62664064,32.0171455 6.56235797,32.0114257 6.49807534,31.9999863 L1.57753086,31.9999863 C1.50740435,32.0114257 1.43727783,32.0171455 1.36715131,32.0171455 C0.630822821,32.0171455 0.0347473238,31.4337327 0.0347473238,30.7130463 L0.0464350615,15.058137 C0.0464350615,14.3374506 0.642510513,13.7540378 1.37883905,13.7540378 C1.43143394,13.7540378 1.48987272,13.7597575 1.54246761,13.7654772 L5.96628252,13.7540378 L5.96628252,13.7311589 C10.033621,13.4451722 13.2594411,10.1792046 13.3763186,6.15251252 C13.3646309,6.03811784 13.358787,5.92372321 13.358787,5.80932853 C13.358787,3.71590624 15.0944185,2.01714549 17.2332775,2.01714549 C19.0740988,2.01714549 20.6110384,3.27548675 21.0084221,4.9570883 L21.0259537,4.9570883 C21.2421772,5.91800346 21.3648986,6.91323701 21.3648986,7.93706921 C21.3648986,9.51571553 21.0902363,11.0314448 20.5876629,12.4442188 L28.0269184,12.4499386 C28.0970449,12.4499386 28.1613276,12.4556583 28.2256102,12.4670978 C29.4937315,12.5185754 30.7209457,13.1534657 31.4397426,14.2916926 C31.901409,15.0009397 32.0825691,15.8131418 32.0241304,16.602465 Z M2.71124303,29.3803486 L5.37605096,29.3803486 L5.3877387,16.3507967 L2.72293077,16.3565164 L2.71124303,29.3803486 Z" id="Shape"></path>
                    </g>
                </g>
            </g>
        </g>
    </g>
</svg>