<?xml version="1.0" encoding="UTF-8"?>
<svg width="33px" height="31px" viewBox="0 0 33 31" version="1.1" xmlns="http://www.w3.org/2000/svg" xmlns:xlink="http://www.w3.org/1999/xlink">
    <!-- Generator: Sketch 46.2 (44496) - http://www.bohemiancoding.com/sketch -->
    <title>Shape</title>
    <desc>Created with Sketch.</desc>
    <defs></defs>
    <g id="Page-1" stroke="none" stroke-width="1" fill="none" fill-rule="evenodd">
        <g id="推荐问题" transform="translate(-354.000000, -1273.000000)" fill-rule="nonzero" fill="#666666">
            <g id="如何玩转拍拍贷" transform="translate(0.000000, 1243.000000)">
                <g id="Group" transform="translate(0.000000, 1.000000)">
                    <g id="有用" transform="translate(294.000000, 27.000000)">
                        <path d="M92.0241304,16.602465 C92.0358181,16.7454583 92.0241304,16.8941714 91.9832232,17.0428844 L89.1021918,29.4833038 C89.0612847,29.6320169 88.9970021,29.7692905 88.9093439,29.8894048 C88.5996184,30.4899768 88.1321083,31.0276317 87.5068134,31.4108538 C86.8522992,31.8169549 86.1159707,32.0114258 85.3913299,32.0114258 L85.3913299,32.005706 L66.895459,31.9999863 C66.8311764,32.0114257 66.7668937,32.0171455 66.6967672,32.0171455 C66.6266406,32.0171455 66.562358,32.0114257 66.4980753,31.9999863 L61.5775309,31.9999863 C61.5074043,32.0114257 61.4372778,32.0171455 61.3671513,32.0171455 C60.6308228,32.0171455 60.0347473,31.4337327 60.0347473,30.7130463 L60.0464351,15.058137 C60.0464351,14.3374506 60.6425105,13.7540378 61.378839,13.7540378 C61.4314339,13.7540378 61.4898727,13.7597575 61.5424676,13.7654772 L65.9662825,13.7540378 L65.9662825,13.7311589 C70.033621,13.4451722 73.2594411,10.1792046 73.3763186,6.15251252 C73.3646309,6.03811784 73.358787,5.92372321 73.358787,5.80932853 C73.358787,3.71590624 75.0944185,2.01714549 77.2332775,2.01714549 C79.0740988,2.01714549 80.6110384,3.27548675 81.0084221,4.9570883 L81.0259537,4.9570883 C81.2421772,5.91800346 81.3648986,6.91323701 81.3648986,7.93706921 C81.3648986,9.51571553 81.0902363,11.0314448 80.5876629,12.4442188 L88.0269184,12.4499386 C88.0970449,12.4499386 88.1613276,12.4556583 88.2256102,12.4670978 C89.4937315,12.5185754 90.7209457,13.1534657 91.4397426,14.2916926 C91.901409,15.0009397 92.0825691,15.8131418 92.0241304,16.602465 L92.0241304,16.602465 Z M62.711243,29.3803486 L65.376051,29.3803486 L65.3877387,16.3507967 L62.7229308,16.3565164 L62.711243,29.3803486 L62.711243,29.3803486 Z M89.1956939,15.6415498 C88.9385633,15.2354488 88.4885848,15.0238186 88.0327623,15.0466975 L88.0327623,15.0409778 C88.0327623,15.0409778 88.0327623,15.0409778 88.0269184,15.0409778 L78.6241203,15.0295383 C77.8877918,15.0295383 77.2917163,14.4461256 77.2917163,13.7254392 C77.2917163,13.5195288 77.3443112,13.3250579 77.4319693,13.1477461 L77.4202816,13.1363067 C77.9520744,12.1639521 78.3377703,11.1115212 78.5598376,9.99617324 L78.5773692,9.99617324 C78.5773692,9.99617324 78.7526855,9.2926461 78.7526855,7.9427891 C78.7526855,6.873199 78.5539937,5.89512465 78.5539937,5.89512465 L78.542306,5.89512465 C78.542306,5.87796545 78.5481499,5.85508651 78.5481499,5.83792731 C78.5481499,5.16299881 77.9929816,4.61962419 77.3034041,4.61962419 C76.6138266,4.61962419 76.0586583,5.16299881 76.0586583,5.83792731 C76.0586583,5.86652596 76.0586583,5.89512465 76.0645022,5.9237233 L76.0469705,5.9237233 C76.0469705,5.9237233 76.0703461,6.9418358 75.8599665,7.99998639 C75.7723083,8.44612557 75.6495869,8.86366607 75.5327093,9.19541061 C75.5327093,9.19541061 75.5268655,9.19541061 75.5268655,9.18969087 C74.4048411,12.5471742 71.5880923,15.1496527 68.0583906,16.0247719 L68.0467028,29.3803486 L85.4088616,29.3860683 C85.4673003,29.3860683 85.5257391,29.3917881 85.5841779,29.3975078 C85.7594942,29.3746288 85.9289666,29.3174315 86.0867513,29.2201961 C86.3088186,29.0829225 86.4724472,28.8827318 86.5659492,28.6596622 L86.5717931,28.6596622 L89.3417908,16.6825412 L89.3301031,16.6768215 C89.4352928,16.3507967 89.4002295,15.9675746 89.1956939,15.6415498 L89.1956939,15.6415498 Z" id="Shape"></path>
                    </g>
                </g>
            </g>
        </g>
    </g>
</svg>